<?xml version="1.0" standalone="no"?>
<!DOCTYPE svg PUBLIC "-//W3C//DTD SVG 20010904//EN"
 "http://www.w3.org/TR/2001/REC-SVG-20010904/DTD/svg10.dtd">
<svg version="1.0" xmlns="http://www.w3.org/2000/svg"
 width="512.000000pt" height="512.000000pt" viewBox="0 0 512.000000 512.000000"
 preserveAspectRatio="xMidYMid meet">

<g transform="translate(0.000000,512.000000) scale(0.100000,-0.100000)"
fill="#DC1C13" stroke="none">
<path d="M1665 4596 c-500 -290 -916 -534 -922 -543 -17 -23 -19 -1799 -2
-1836 8 -17 75 -62 206 -138 108 -63 196 -118 197 -123 1 -6 -81 -57 -181
-115 -101 -58 -193 -116 -205 -129 -22 -22 -23 -29 -26 -255 -4 -299 3 -413
29 -435 30 -26 1729 -1012 1755 -1018 12 -3 33 0 46 7 124 64 1797 1036 1811
1051 16 19 17 77 17 922 -1 707 -3 906 -13 924 -8 13 -96 71 -205 135 -106 61
-193 117 -194 122 -1 6 86 60 193 122 165 95 196 117 208 145 11 27 13 92 8
337 -5 302 -6 304 -29 327 -13 12 -142 92 -288 177 -949 553 -1447 839 -1469
843 -21 4 -216 -104 -936 -520z m1689 -92 c413 -241 759 -443 769 -450 17 -11
15 -14 -25 -37 -657 -381 -1572 -907 -1578 -907 -4 0 -347 197 -761 438 -415
241 -763 443 -773 449 -17 9 -11 15 48 49 37 22 399 231 804 466 406 234 743
427 751 427 7 1 352 -195 765 -435z m876 -802 l0 -198 -87 -50 c-710 -408
-901 -520 -915 -536 -16 -18 -18 -50 -18 -340 0 -185 4 -327 10 -337 15 -28
61 -44 93 -32 15 6 217 120 450 254 232 134 432 249 445 256 l22 12 0 -788 0
-788 -762 -440 c-419 -242 -783 -452 -810 -468 l-48 -27 0 202 1 203 483 278
c267 154 495 290 508 304 l23 25 -3 321 c-3 311 -4 323 -24 345 -13 13 -33 22
-50 22 -19 0 -137 -63 -351 -186 -177 -103 -379 -220 -449 -260 -70 -41 -132
-74 -138 -74 -7 0 -10 259 -10 783 l0 784 808 466 c444 257 810 467 815 467 4
0 7 -89 7 -198z m-247 -735 c86 -50 157 -94 157 -97 0 -3 -174 -105 -385 -227
l-385 -221 0 201 1 202 212 122 c117 67 219 120 227 117 8 -3 86 -47 173 -97z
m-2067 -1453 c488 -284 599 -345 620 -340 14 4 130 67 258 141 128 74 239 135
246 135 12 0 315 -172 333 -189 8 -8 -826 -494 -847 -494 -6 0 -204 112 -441
250 -236 137 -576 334 -755 438 -179 103 -331 193 -337 199 -10 9 26 34 155
109 92 53 168 97 170 97 1 0 270 -156 598 -346z"/>
</g>
</svg>
